<?xml version="1.0" encoding="utf-8"?>
<!-- Generator: Adobe Illustrator 23.0.1, SVG Export Plug-In . SVG Version: 6.00 Build 0)  -->
<svg version="1.1" id="Layer_1" xmlns="http://www.w3.org/2000/svg" xmlns:xlink="http://www.w3.org/1999/xlink" x="0px" y="0px"
	 viewBox="0 0 368 109" style="enable-background:new 0 0 368 109;" xml:space="preserve">
<style type="text/css">
	.st0{fill:#27499B;}
	.st1{fill:#F48320;}
	.st2{fill:#152248;}
</style>
<polygon class="st0" points="184.49,55.29 184.49,55.29 184.49,55.29 "/>
<g>
	<g>
		<path class="st1" d="M104.06,41.95H83.11c-1.48-3-3.41-5.74-5.76-8.09c-5.51-5.5-13.03-8.87-21.43-8.88
			c-8.4,0.01-15.91,3.38-21.43,8.88c-2.57,2.57-4.67,5.58-6.18,8.91V13.61c7.92-5.24,17.43-8.32,27.61-8.32
			c13.78,0,26.34,5.61,35.36,14.64C97.28,25.93,101.72,33.51,104.06,41.95z"/>
		<path class="st2" d="M84.09,66.42c-1.54,3.88-3.83,7.37-6.74,10.3c-5.52,5.5-13.03,8.87-21.43,8.88c-6.15,0-11.82-1.82-16.59-4.95
			c-1.74-1.14-3.37-2.46-4.84-3.93c-0.18-0.19-0.36-0.38-0.54-0.57c-5.18-5.46-8.33-12.74-8.34-20.86v0c0,0,0,0,0,0
			c0-0.08,0.01-0.17,0.01-0.25l-0.01,0V15.53V5.29H12.65c-6.26,0.21-6.59,7.48-6.59,7.48l-0.01,0C6.01,26.63,5.92,54.89,5.92,55.28
			c0,0,0,0,0,0c0,13.77,5.61,26.34,14.64,35.35c1.54,1.54,3.18,2.97,4.92,4.3c0.17,0.13,0.34,0.27,0.51,0.4
			c0.44,0.33,0.89,0.64,1.35,0.96c0.21,0.14,0.4,0.29,0.61,0.44c0.34,0.23,0.69,0.44,1.03,0.66c0.33,0.21,0.66,0.43,1,0.64
			c0.23,0.14,0.48,0.27,0.71,0.41c0.46,0.27,0.92,0.54,1.38,0.8c0.2,0.11,0.41,0.21,0.62,0.32c0.51,0.27,1.02,0.54,1.54,0.79
			c0.15,0.07,0.31,0.14,0.47,0.21c0.58,0.27,1.16,0.54,1.75,0.79c0.15,0.06,0.3,0.12,0.45,0.18c0.6,0.25,1.21,0.49,1.82,0.72
			c0.12,0.05,0.25,0.08,0.38,0.13c0.64,0.23,1.29,0.45,1.95,0.66c0.19,0.06,0.38,0.11,0.58,0.16c0.6,0.18,1.19,0.36,1.8,0.51
			c0.17,0.04,0.34,0.08,0.51,0.12c0.63,0.16,1.27,0.31,1.91,0.44c0.08,0.02,0.17,0.03,0.25,0.04c0.73,0.15,1.47,0.28,2.21,0.4
			c0.11,0.02,0.23,0.03,0.34,0.04c0.72,0.1,1.44,0.2,2.16,0.28c0.12,0.01,0.23,0.02,0.35,0.03c0.73,0.07,1.45,0.13,2.19,0.17
			c0.16,0.01,0.32,0.01,0.49,0.01c0.69,0.03,1.39,0.05,2.09,0.05c0.7,0,1.39-0.02,2.08-0.05c0.16-0.01,0.33,0,0.49-0.01
			c0.74-0.04,1.47-0.1,2.2-0.17c0.11-0.01,0.22-0.01,0.34-0.03c0.75-0.08,1.5-0.18,2.25-0.29c0.08-0.01,0.17-0.02,0.25-0.03
			c0.81-0.12,1.61-0.27,2.41-0.43c0.02,0,0.04-0.01,0.05-0.01c0.72-0.15,1.43-0.32,2.14-0.49c0.09-0.02,0.19-0.04,0.28-0.06
			c0.72-0.19,1.44-0.39,2.14-0.61c0.08-0.02,0.15-0.04,0.23-0.07c1.55-0.48,3.06-1.04,4.54-1.66c0.02-0.01,0.04-0.01,0.06-0.02
			c0.71-0.3,1.41-0.62,2.11-0.95c0.04-0.02,0.07-0.03,0.11-0.05c0.72-0.35,1.42-0.71,2.12-1.09c0.01-0.01,0.02-0.01,0.04-0.02
			c0.66-0.36,1.3-0.73,1.94-1.12c0.05-0.03,0.1-0.06,0.15-0.09c0.52-0.31,1.02-0.64,1.52-0.98c0.17-0.11,0.34-0.21,0.51-0.33
			c0.63-0.43,1.25-0.87,1.86-1.32c0.03-0.03,0.07-0.05,0.1-0.07c0.61-0.45,1.2-0.92,1.79-1.41c0.03-0.03,0.07-0.05,0.1-0.08
			c0.33-0.27,0.64-0.55,0.96-0.83c0.89-0.77,1.75-1.56,2.58-2.39c3.56-3.55,6.57-7.65,8.92-12.16c0.34-0.64,0.66-1.3,0.97-1.96
			c0.01-0.02,0.02-0.04,0.03-0.06c0.47-1.01,0.9-2.05,1.3-3.1c0.87-2.25,1.59-4.57,2.14-6.95H84.09z"/>
	</g>
	<g>
		<g>
			<path class="st2" d="M130.32,58.78V18.65h-7.06v46.76h20.81v-6.64H130.32z"/>
			<path class="st2" d="M149.47,35.91v29.51h6.81V35.91H149.47z M156,20.56c-0.87-0.87-1.91-1.3-3.15-1.3
				c-1.21,0-2.25,0.43-3.12,1.3c-0.86,0.87-1.3,1.9-1.3,3.09c0,1.25,0.44,2.31,1.3,3.18c0.87,0.87,1.92,1.3,3.16,1.3
				c1.23,0,2.27-0.43,3.11-1.3c0.87-0.87,1.31-1.92,1.31-3.15C157.31,22.44,156.87,21.41,156,20.56z"/>
			<path class="st2" d="M177.66,48.3l12.81-12.4h-9.15l-9.6,9.55v-31.2h-6.81v51.16h6.81V54.05l1.1-1.09l9.75,12.45h8.84
				L177.66,48.3z"/>
			<path class="st2" d="M216.19,54.48c-1.39,2.18-2.64,3.67-3.73,4.48c-1.11,0.81-2.51,1.22-4.2,1.22c-2.19,0-3.97-0.71-5.36-2.12
				c-1.39-1.44-2.18-3.36-2.36-5.79h21.14l0.03-1.6c0-4.87-1.25-8.68-3.75-11.43c-2.53-2.76-5.95-4.15-10.3-4.15
				c-4.3,0-7.75,1.43-10.35,4.28c-2.59,2.88-3.88,6.66-3.88,11.32c0,4.71,1.34,8.48,4,11.32c2.66,2.83,6.2,4.25,10.6,4.25
				c1.54,0,2.96-0.16,4.28-0.49c1.31-0.33,2.53-0.83,3.66-1.53c1.13-0.7,2.19-1.59,3.18-2.67c0.99-1.08,1.93-2.37,2.82-3.89
				L216.19,54.48z M201.95,44.42c0.43-0.67,0.93-1.24,1.53-1.71c0.6-0.48,1.26-0.83,1.99-1.09c0.73-0.25,1.5-0.38,2.33-0.38
				c3.63,0,5.92,1.81,6.88,5.45h-13.7C201.21,45.85,201.53,45.09,201.95,44.42z"/>
			<path class="st2" d="M252.47,24.4c4.37,0,8.59,1.71,12.66,5.12v-8.36c-3.92-2.28-7.97-3.42-12.18-3.42
				c-7.69,0-13.96,2.86-18.8,8.58c-3.94,4.66-5.9,9.97-5.9,15.93c0,6.65,2.34,12.31,7.05,17.02c4.73,4.67,10.44,7,17.12,7
				c4.44,0,8.68-1.14,12.72-3.42v-8.51c-1.14,0.97-2.24,1.79-3.29,2.48c-1.03,0.69-2.04,1.24-3.01,1.64
				c-1.74,0.81-3.85,1.21-6.33,1.21c-4.81,0-8.87-1.68-12.18-5.05c-3.31-3.38-4.97-7.52-4.97-12.42c0-4.96,1.66-9.16,4.97-12.6
				C243.61,26.13,247.66,24.4,252.47,24.4z"/>
			<path class="st2" d="M294.48,35.91v3.42c-2.73-2.82-5.8-4.24-9.24-4.24c-3.97,0-7.29,1.47-9.93,4.42
				c-2.65,2.95-3.96,6.64-3.96,11.06c0,4.5,1.32,8.26,3.96,11.27c2.66,2.95,6.03,4.42,10.12,4.42c3.23,0,6.25-1.32,9.05-3.95v3.09
				h6.85V35.91H294.48z M292.57,57.57c-1.56,1.74-3.6,2.61-6.12,2.61c-2.36,0-4.32-0.91-5.87-2.7c-1.52-1.78-2.28-4.07-2.28-6.9
				c0-2.65,0.78-4.87,2.33-6.66c1.57-1.78,3.53-2.66,5.88-2.66c2.48,0,4.5,0.88,6.06,2.64c1.56,1.79,2.33,4.07,2.33,6.84
				C294.91,53.49,294.13,55.77,292.57,57.57z"/>
			<path class="st2" d="M323.59,35.09c-1.35,0-2.53,0.26-3.52,0.76c-0.97,0.49-2.08,1.38-3.33,2.69v-2.64h-6.81v29.51h6.81v-15.3
				c0-5.61,1.86-8.42,5.58-8.42c1.23,0,2.49,0.47,3.78,1.4l3.12-6.24C327.26,35.68,325.38,35.09,323.59,35.09z"/>
			<path class="st2" d="M354.45,14.26v25.08c-2.73-2.82-5.81-4.24-9.26-4.24c-3.98,0-7.29,1.48-9.91,4.45
				c-2.65,2.96-3.97,6.63-3.97,11.03c0,4.5,1.33,8.26,3.97,11.27c2.66,2.95,6.01,4.42,10.05,4.42c3.4,0,6.44-1.32,9.12-3.95v3.09
				h6.85V14.26H354.45z M352.55,57.57c-1.56,1.74-3.6,2.61-6.12,2.61c-2.36,0-4.32-0.91-5.88-2.7c-1.51-1.78-2.27-4.07-2.27-6.9
				c0-2.65,0.78-4.87,2.33-6.66c1.57-1.78,3.53-2.66,5.88-2.66c2.48,0,4.5,0.88,6.06,2.64c1.55,1.79,2.33,4.07,2.33,6.84
				C354.87,53.49,354.09,55.77,352.55,57.57z"/>
		</g>
		<g>
			<path class="st1" d="M131.98,87.96c-0.5-0.74-1.18-1.25-2.04-1.55c0.89-0.81,1.33-1.79,1.33-2.96c0-0.64-0.13-1.27-0.4-1.9
				c-0.27-0.62-0.64-1.13-1.09-1.55c-0.45-0.4-1-0.69-1.65-0.85c-0.64-0.17-1.51-0.26-2.6-0.26h-2.45v16.26h3.72
				c1.11,0,2.03-0.1,2.77-0.31c0.67-0.21,1.28-0.58,1.82-1.12c0.9-0.88,1.35-1.95,1.35-3.22C132.73,89.54,132.48,88.69,131.98,87.96
				z M125.53,81.16h0.87c0.82,0,1.46,0.2,1.89,0.59c0.44,0.39,0.65,0.98,0.65,1.74c0,0.79-0.21,1.38-0.64,1.79
				c-0.42,0.4-1.09,0.6-2,0.6h-0.77V81.16z M129.49,92.2c-0.52,0.44-1.33,0.65-2.44,0.65h-1.52v-4.92h1.24
				c1.32,0,2.23,0.24,2.75,0.71c0.52,0.47,0.79,1.06,0.79,1.77C130.31,91.13,130.04,91.73,129.49,92.2z"/>
			<path class="st1" d="M142.81,91.36c-0.49,0.76-0.92,1.28-1.3,1.56c-0.39,0.27-0.88,0.42-1.47,0.42c-0.76,0-1.37-0.25-1.86-0.74
				c-0.48-0.5-0.76-1.17-0.82-2.01h7.35l0.01-0.56c0-1.69-0.44-3.02-1.3-3.97c-0.88-0.96-2.07-1.44-3.58-1.44
				c-1.49,0-2.7,0.5-3.61,1.48c-0.89,1-1.35,2.32-1.35,3.94c0,1.63,0.46,2.94,1.39,3.93c0.93,0.99,2.15,1.48,3.68,1.48
				c0.54,0,1.03-0.05,1.48-0.16c0.46-0.12,0.88-0.29,1.28-0.53c0.39-0.25,0.76-0.56,1.11-0.93c0.34-0.38,0.67-0.83,0.98-1.36
				L142.81,91.36z M137.86,87.86c0.15-0.23,0.33-0.43,0.53-0.59c0.21-0.17,0.44-0.29,0.69-0.39c0.26-0.09,0.52-0.13,0.82-0.13
				c1.26,0,2.06,0.64,2.39,1.9h-4.76C137.6,88.36,137.71,88.1,137.86,87.86z"/>
			<path class="st1" d="M163.1,87.44c-0.61-0.76-1.58-1.42-2.89-1.95l-1.62-0.66c-1.18-0.49-1.77-1.12-1.77-1.91
				c0-0.58,0.22-1.06,0.67-1.43c0.45-0.39,1.02-0.58,1.7-0.58c0.55,0,1,0.11,1.36,0.34c0.33,0.19,0.7,0.61,1.06,1.26l1.99-1.18
				c-1.06-1.82-2.52-2.74-4.39-2.74c-1.39,0-2.55,0.42-3.49,1.24c-0.93,0.82-1.4,1.85-1.4,3.06c0,1.81,1.12,3.18,3.34,4.13
				l1.57,0.65c0.4,0.17,0.76,0.36,1.05,0.55c0.3,0.2,0.54,0.4,0.72,0.63c0.19,0.21,0.33,0.46,0.41,0.72
				c0.09,0.27,0.14,0.56,0.14,0.87c0,0.79-0.26,1.44-0.76,1.95c-0.51,0.52-1.14,0.77-1.91,0.77c-0.97,0-1.7-0.35-2.21-1.06
				c-0.28-0.36-0.48-1.02-0.59-1.97l-2.48,0.54c0.22,1.52,0.79,2.7,1.69,3.53c0.92,0.83,2.09,1.25,3.49,1.25
				c1.49,0,2.74-0.49,3.74-1.48c1-0.97,1.49-2.21,1.49-3.7C164.02,89.16,163.71,88.22,163.1,87.44z"/>
			<path class="st1" d="M177.13,84.62c-1.27,0-2.28,0.51-3.02,1.52c-0.68-1.01-1.6-1.52-2.75-1.52c-0.52,0-0.95,0.09-1.3,0.27
				c-0.33,0.16-0.71,0.49-1.17,0.97V84.9h-2.37v10.26h2.37v-5.3c0-1.07,0.15-1.86,0.45-2.36c0.3-0.5,0.79-0.75,1.46-0.75
				c1.05,0,1.58,0.91,1.58,2.74v5.67h2.38v-5.3c0-1.09,0.15-1.88,0.45-2.37c0.3-0.49,0.77-0.74,1.42-0.74
				c0.57,0,0.97,0.21,1.21,0.62c0.24,0.41,0.36,1.11,0.36,2.09v5.7h2.38v-6.33C180.59,86.02,179.44,84.62,177.13,84.62z"/>
			<path class="st1" d="M191.14,84.9v1.19c-0.95-0.99-2.02-1.48-3.21-1.48c-1.38,0-2.53,0.52-3.45,1.54
				c-0.93,1.03-1.38,2.31-1.38,3.85c0,1.56,0.45,2.87,1.38,3.91c0.93,1.02,2.09,1.54,3.51,1.54c1.12,0,2.17-0.45,3.15-1.36v1.07
				h2.38V84.9H191.14z M190.47,92.43c-0.54,0.6-1.25,0.91-2.13,0.91c-0.82,0-1.5-0.32-2.04-0.94c-0.52-0.62-0.79-1.42-0.79-2.4
				c0-0.92,0.27-1.69,0.81-2.32c0.55-0.62,1.24-0.93,2.04-0.93c0.87,0,1.57,0.31,2.11,0.92c0.54,0.63,0.81,1.42,0.81,2.38
				C191.28,91.01,191.02,91.8,190.47,92.43z"/>
			<path class="st1" d="M201.25,84.62c-0.46,0-0.88,0.09-1.22,0.27c-0.33,0.16-0.72,0.48-1.16,0.94V84.9h-2.37v10.26h2.37v-5.32
				c0-1.95,0.64-2.92,1.94-2.92c0.43,0,0.87,0.15,1.31,0.48l1.09-2.17C202.53,84.82,201.87,84.62,201.25,84.62z"/>
			<path class="st1" d="M207.79,84.9v-3.76h-2.37v3.76h-1.01v2.21h1.01v8.04h2.37v-8.04h1.85V84.9H207.79z"/>
			<path class="st1" d="M214.11,92.95c-0.29-0.28-0.64-0.43-1.03-0.43c-0.4,0-0.75,0.15-1.04,0.43c-0.28,0.29-0.43,0.64-0.43,1.02
				c0,0.42,0.14,0.77,0.42,1.06c0.28,0.28,0.63,0.42,1.05,0.42c0.4,0,0.75-0.14,1.03-0.42c0.28-0.28,0.43-0.64,0.43-1.04
				C214.54,93.59,214.39,93.25,214.11,92.95z"/>
			<path class="st1" d="M220.76,92.95c-0.29-0.28-0.64-0.43-1.03-0.43c-0.4,0-0.75,0.15-1.04,0.43c-0.28,0.29-0.43,0.64-0.43,1.02
				c0,0.42,0.15,0.77,0.42,1.06c0.28,0.28,0.63,0.42,1.05,0.42c0.4,0,0.75-0.14,1.03-0.42c0.28-0.28,0.43-0.64,0.43-1.04
				C221.19,93.59,221.04,93.25,220.76,92.95z"/>
			<path class="st1" d="M233.89,87.96c-0.5-0.74-1.18-1.25-2.04-1.55c0.89-0.81,1.34-1.79,1.34-2.96c0-0.64-0.14-1.27-0.41-1.9
				c-0.27-0.62-0.63-1.13-1.08-1.55c-0.45-0.4-1-0.69-1.65-0.85c-0.65-0.17-1.52-0.26-2.6-0.26H225v16.26h3.72
				c1.11,0,2.03-0.1,2.77-0.31c0.67-0.21,1.28-0.58,1.82-1.12c0.89-0.88,1.35-1.95,1.35-3.22C234.66,89.54,234.4,88.69,233.89,87.96
				z M227.45,81.16h0.86c0.83,0,1.46,0.2,1.9,0.59c0.44,0.39,0.65,0.98,0.65,1.74c0,0.79-0.21,1.38-0.64,1.79
				c-0.42,0.4-1.09,0.6-2.01,0.6h-0.76V81.16z M231.41,92.2c-0.52,0.44-1.33,0.65-2.45,0.65h-1.51v-4.92h1.24
				c1.31,0,2.23,0.24,2.75,0.71c0.52,0.47,0.79,1.06,0.79,1.77C232.24,91.13,231.96,91.73,231.41,92.2z"/>
			<path class="st1" d="M244.72,91.36c-0.48,0.76-0.91,1.28-1.3,1.56c-0.39,0.27-0.87,0.42-1.46,0.42c-0.76,0-1.38-0.25-1.86-0.74
				c-0.48-0.5-0.76-1.17-0.82-2.01h7.35l0.02-0.56c0-1.69-0.44-3.02-1.31-3.97c-0.88-0.96-2.07-1.44-3.57-1.44s-2.7,0.5-3.61,1.48
				c-0.9,1-1.35,2.32-1.35,3.94c0,1.63,0.46,2.94,1.39,3.93c0.93,0.99,2.15,1.48,3.68,1.48c0.53,0,1.03-0.05,1.48-0.16
				c0.45-0.12,0.88-0.29,1.27-0.53c0.39-0.25,0.76-0.56,1.11-0.93c0.34-0.38,0.67-0.83,0.98-1.36L244.72,91.36z M239.78,87.86
				c0.15-0.23,0.33-0.43,0.53-0.59c0.21-0.17,0.44-0.29,0.69-0.39c0.26-0.09,0.52-0.13,0.82-0.13c1.26,0,2.06,0.64,2.39,1.9h-4.76
				C239.52,88.36,239.63,88.1,239.78,87.86z"/>
			<path class="st1" d="M263.94,80.9c1.52,0,2.99,0.59,4.4,1.79v-2.91c-1.36-0.79-2.77-1.19-4.23-1.19c-2.67,0-4.85,1-6.54,2.99
				c-1.36,1.61-2.05,3.46-2.05,5.54c0,2.31,0.82,4.27,2.45,5.91c1.64,1.62,3.62,2.43,5.95,2.43c1.55,0,3.02-0.39,4.42-1.18v-2.96
				c-0.4,0.33-0.78,0.63-1.14,0.87c-0.36,0.23-0.71,0.42-1.05,0.57c-0.6,0.27-1.34,0.42-2.2,0.42c-1.67,0-3.08-0.58-4.23-1.76
				c-1.15-1.18-1.73-2.61-1.73-4.32c0-1.73,0.58-3.18,1.73-4.38C260.86,81.5,262.27,80.9,263.94,80.9z"/>
			<path class="st1" d="M279.86,86.19c-1.07-1.05-2.37-1.57-3.9-1.57c-1.52,0-2.82,0.52-3.87,1.56c-1.06,1.04-1.6,2.29-1.6,3.78
				c0,1.57,0.52,2.88,1.56,3.91c1.04,1.06,2.33,1.58,3.86,1.58c1.55,0,2.86-0.52,3.92-1.55c1.06-1.04,1.6-2.33,1.6-3.86
				C281.44,88.52,280.91,87.24,279.86,86.19z M278.18,92.44c-0.56,0.6-1.3,0.9-2.22,0.9c-0.92,0-1.66-0.31-2.22-0.91
				c-0.55-0.59-0.82-1.41-0.82-2.43c0-0.95,0.27-1.73,0.84-2.33c0.56-0.61,1.29-0.91,2.2-0.91c0.92,0,1.66,0.3,2.22,0.91
				c0.55,0.59,0.83,1.39,0.83,2.39C279.02,91.05,278.73,91.85,278.18,92.44z"/>
			<path class="st1" d="M291.91,85.74c-0.67-0.75-1.6-1.12-2.79-1.12c-1.04,0-1.97,0.41-2.8,1.24V84.9h-2.38v10.26h2.38v-4.95
				c0-1.27,0.15-2.17,0.48-2.68c0.33-0.52,0.89-0.78,1.67-0.78c0.72,0,1.22,0.2,1.49,0.59c0.28,0.39,0.42,1.08,0.42,2.09v5.73h2.38
				v-6.28C292.77,87.43,292.49,86.39,291.91,85.74z"/>
			<path class="st1" d="M302,84.9l-2.64,5.76l-2.65-5.76h-2.65l5.29,10.96l5.32-10.96H302z"/>
			<path class="st1" d="M313.34,91.36c-0.49,0.76-0.92,1.28-1.3,1.56c-0.39,0.27-0.88,0.42-1.47,0.42c-0.76,0-1.37-0.25-1.86-0.74
				c-0.48-0.5-0.76-1.17-0.82-2.01h7.35l0.01-0.56c0-1.69-0.44-3.02-1.3-3.97c-0.88-0.96-2.07-1.44-3.58-1.44
				c-1.49,0-2.7,0.5-3.61,1.48c-0.89,1-1.35,2.32-1.35,3.94c0,1.63,0.46,2.94,1.39,3.93c0.93,0.99,2.15,1.48,3.68,1.48
				c0.54,0,1.03-0.05,1.49-0.16c0.46-0.12,0.88-0.29,1.28-0.53c0.39-0.25,0.76-0.56,1.11-0.93c0.34-0.38,0.67-0.83,0.98-1.36
				L313.34,91.36z M308.38,87.86c0.15-0.23,0.33-0.43,0.53-0.59c0.21-0.17,0.44-0.29,0.69-0.39c0.26-0.09,0.52-0.13,0.82-0.13
				c1.26,0,2.06,0.64,2.39,1.9h-4.76C308.13,88.36,308.24,88.1,308.38,87.86z"/>
			<path class="st1" d="M325.8,85.74c-0.67-0.75-1.6-1.12-2.79-1.12c-1.04,0-1.97,0.41-2.81,1.24V84.9h-2.38v10.26h2.38v-4.95
				c0-1.27,0.16-2.17,0.49-2.68c0.33-0.52,0.88-0.78,1.67-0.78c0.72,0,1.22,0.2,1.49,0.59c0.28,0.39,0.42,1.08,0.42,2.09v5.73h2.38
				v-6.28C326.66,87.43,326.37,86.39,325.8,85.74z"/>
			<path class="st1" d="M329.64,84.9v10.26h2.37V84.9H329.64z M331.92,79.57c-0.3-0.31-0.66-0.45-1.09-0.45
				c-0.42,0-0.78,0.15-1.09,0.45c-0.3,0.3-0.45,0.65-0.45,1.07c0,0.43,0.15,0.8,0.45,1.1c0.31,0.31,0.67,0.45,1.1,0.45
				c0.43,0,0.79-0.15,1.08-0.45c0.3-0.3,0.45-0.66,0.45-1.09S332.22,79.86,331.92,79.57z"/>
			<path class="st1" d="M342.45,91.36c-0.49,0.76-0.92,1.28-1.3,1.56c-0.39,0.27-0.88,0.42-1.47,0.42c-0.76,0-1.37-0.25-1.86-0.74
				c-0.48-0.5-0.76-1.17-0.82-2.01h7.35l0.01-0.56c0-1.69-0.44-3.02-1.3-3.97c-0.88-0.96-2.07-1.44-3.58-1.44
				c-1.49,0-2.7,0.5-3.61,1.48c-0.89,1-1.35,2.32-1.35,3.94c0,1.63,0.46,2.94,1.39,3.93c0.93,0.99,2.15,1.48,3.69,1.48
				c0.53,0,1.02-0.05,1.48-0.16c0.46-0.12,0.88-0.29,1.28-0.53c0.39-0.25,0.76-0.56,1.11-0.93c0.34-0.38,0.67-0.83,0.98-1.36
				L342.45,91.36z M337.5,87.86c0.15-0.23,0.33-0.43,0.53-0.59c0.21-0.17,0.44-0.29,0.7-0.39c0.25-0.09,0.52-0.13,0.81-0.13
				c1.26,0,2.06,0.64,2.39,1.9h-4.76C337.24,88.36,337.35,88.1,337.5,87.86z"/>
			<path class="st1" d="M354.92,85.74c-0.67-0.75-1.6-1.12-2.79-1.12c-1.04,0-1.97,0.41-2.8,1.24V84.9h-2.39v10.26h2.39v-4.95
				c0-1.27,0.15-2.17,0.48-2.68c0.33-0.52,0.88-0.78,1.67-0.78c0.72,0,1.22,0.2,1.49,0.59c0.28,0.39,0.42,1.08,0.42,2.09v5.73h2.38
				v-6.28C355.77,87.43,355.49,86.39,354.92,85.74z"/>
			<path class="st1" d="M361.21,84.9v-3.76h-2.37v3.76h-1.01v2.21h1.01v8.04h2.37v-8.04h1.85V84.9H361.21z"/>
		</g>
	</g>
</g>
</svg>
